<svg width="14" height="14" viewBox="0 0 14 14" fill="none" xmlns="http://www.w3.org/2000/svg">
<path fill-rule="evenodd" clip-rule="evenodd" d="M7.56564 2.31564C7.7365 2.14479 8.0135 2.14479 8.18436 2.31564L12.5594 6.69064C12.6414 6.77269 12.6875 6.88397 12.6875 7C12.6875 7.11603 12.6414 7.22731 12.5594 7.30936L8.18436 11.6844C8.0135 11.8552 7.73649 11.8552 7.56564 11.6844C7.39479 11.5135 7.39479 11.2365 7.56564 11.0656L11.1938 7.4375H1.75C1.50838 7.4375 1.3125 7.24162 1.3125 7C1.3125 6.75838 1.50838 6.5625 1.75 6.5625H11.1938L7.56564 2.93436C7.39479 2.7635 7.39479 2.4865 7.56564 2.31564Z" fill="#4F46E5"/>
</svg>
