<svg width="17" height="18" viewBox="0 0 17 18" fill="none" xmlns="http://www.w3.org/2000/svg">
<path d="M16.6012 9.62647C16.617 9.41971 16.625 9.21078 16.625 8.99998C16.625 7.72984 16.3336 6.52777 15.8139 5.457C14.783 6.43562 13.556 7.20959 12.1978 7.71382C12.2324 8.13797 12.25 8.56692 12.25 8.99998C12.25 9.91765 12.1709 10.8168 12.0191 11.6911C13.6802 11.2731 15.2265 10.566 16.6012 9.62647Z" fill="#6366F1"/>
<path d="M10.6953 11.9584C10.895 11.0037 11 10.0141 11 8.99998C11 8.69299 10.9904 8.38825 10.9714 8.08605C10.1784 8.27497 9.35087 8.37498 8.5 8.37498C7.64913 8.37498 6.82162 8.27496 6.02858 8.08605C6.00962 8.38825 6 8.69299 6 8.99998C6 10.0141 6.10501 11.0037 6.30475 11.9584C7.02048 12.0681 7.7536 12.125 8.5 12.125C9.2464 12.125 9.97952 12.0681 10.6953 11.9584Z" fill="#6366F1"/>
<path d="M6.64353 13.2658C7.25232 13.3379 7.87183 13.375 8.5 13.375C9.12817 13.375 9.74768 13.3379 10.3565 13.2658C9.92832 14.6456 9.29794 15.9363 8.5 17.1034C7.70206 15.9363 7.07168 14.6456 6.64353 13.2658Z" fill="#6366F1"/>
<path d="M4.98088 11.6911C4.82911 10.8168 4.75 9.91765 4.75 8.99998C4.75 8.56692 4.76762 8.13797 4.80218 7.71382C3.44405 7.20959 2.21699 6.43562 1.18611 5.457C0.666445 6.52777 0.375 7.72984 0.375 8.99998C0.375 9.21078 0.38303 9.41971 0.398796 9.62647C1.77355 10.566 3.31978 11.2731 4.98088 11.6911Z" fill="#6366F1"/>
<path d="M16.2967 11.2938C15.4503 14.1754 13.0498 16.3921 10.0646 16.9745C10.7866 15.7603 11.3488 14.4399 11.722 13.0424C13.3552 12.7 14.8946 12.1026 16.2967 11.2938Z" fill="#6366F1"/>
<path d="M0.703292 11.2938C2.10535 12.1026 3.64477 12.7 5.27797 13.0424C5.65122 14.4399 6.21335 15.7603 6.93535 16.9745C3.95023 16.3921 1.5497 14.1754 0.703292 11.2938Z" fill="#6366F1"/>
<path d="M10.0646 1.0255C12.166 1.43542 13.9776 2.65521 15.1614 4.3467C14.2793 5.23741 13.2198 5.95213 12.0402 6.43351C11.7184 4.48572 11.0363 2.65948 10.0646 1.0255Z" fill="#6366F1"/>
<path d="M8.5 0.896606C9.69056 2.63794 10.5081 4.65452 10.8375 6.83124C10.0903 7.02301 9.30704 7.12498 8.5 7.12498C7.69296 7.12498 6.90975 7.02301 6.16253 6.83124C6.49192 4.65452 7.30944 2.63794 8.5 0.896606Z" fill="#6366F1"/>
<path d="M6.93535 1.0255C5.96373 2.65948 5.28163 4.48572 4.95976 6.43351C3.78024 5.95213 2.72074 5.23741 1.83862 4.3467C3.02241 2.65521 4.83404 1.43541 6.93535 1.0255Z" fill="#6366F1"/>
</svg>
