<svg width="20" height="20" viewBox="0 0 20 20" fill="none" xmlns="http://www.w3.org/2000/svg">
<g clip-path="url(#clip0_185_5892)">
<path d="M18.3332 10.1847C18.3332 9.50144 18.2765 9.00287 18.1537 8.48584H10.1699V11.5696H14.8562C14.7618 12.3359 14.2516 13.49 13.1177 14.2655L13.1019 14.3688L15.6262 16.2797L15.8011 16.2968C17.4072 14.8472 18.3332 12.7144 18.3332 10.1847Z" fill="#4285F4"/>
<path d="M10.1701 18.3095C12.466 18.3095 14.3934 17.5709 15.8013 16.2968L13.118 14.2655C12.3999 14.7548 11.4362 15.0965 10.1701 15.0965C7.92146 15.0965 6.01293 13.6469 5.3326 11.6434L5.23288 11.6517L2.60806 13.6368L2.57373 13.73C3.97205 16.4444 6.84432 18.3095 10.1701 18.3095Z" fill="#34A853"/>
<path d="M5.33238 11.6434C5.15287 11.1264 5.04898 10.5724 5.04898 10C5.04898 9.42753 5.15287 8.87358 5.32293 8.35655L5.31818 8.24644L2.66047 6.22949L2.57351 6.26991C1.9972 7.39633 1.6665 8.66125 1.6665 10C1.6665 11.3388 1.9972 12.6036 2.57351 13.73L5.33238 11.6434Z" fill="#FBBC05"/>
<path d="M10.1701 4.90342C11.7669 4.90342 12.8439 5.57742 13.4581 6.14066L15.8579 3.85091C14.384 2.51215 12.466 1.69043 10.1701 1.69043C6.84432 1.69043 3.97205 3.55544 2.57373 6.26987L5.32315 8.35651C6.01294 6.35299 7.92146 4.90342 10.1701 4.90342Z" fill="#EB4335"/>
</g>
<defs>
<clipPath id="clip0_185_5892">
<rect width="16.6667" height="16.6667" fill="white" transform="translate(1.6665 1.66663)"/>
</clipPath>
</defs>
</svg>
