<svg width="146" height="24" viewBox="0 0 146 24" fill="none" xmlns="http://www.w3.org/2000/svg">
<path fill-rule="evenodd" clip-rule="evenodd" d="M19.5968 13.2887C19.9704 14.0857 21.0951 13.9785 21.3568 13.1381L22.9746 7.94423C22.9841 7.91998 22.993 7.89529 23.0011 7.87017L23.8113 5.27073C24.7801 2.14471 21.8569 -0.780714 18.7332 0.188854L18.3832 0.301607C17.6994 0.521883 17.174 1.09057 17.0981 1.80489C16.7202 5.36266 17.8341 9.52753 19.5968 13.2887ZM19.5463 18.9564C19.7713 18.2309 19.5613 17.4433 19.031 16.8993C15.0066 12.7718 12.9368 8.49684 12.0415 4.7586C11.7511 3.54611 10.5208 2.74377 9.32956 3.11155L2.97561 5.07317L2.85458 5.11099C-0.912252 6.2728 -0.962365 11.5887 2.77106 12.8341L7.13924 14.2968C8.35031 14.7064 9.2941 15.6509 9.70336 16.8628L11.1566 21.2259C12.4011 24.9621 17.7131 24.9119 18.8657 21.1507L19.5463 18.9564Z" fill="#4F46E5"/>
<path fill-rule="evenodd" clip-rule="evenodd" d="M50.5231 2C49.9069 2 49.3251 2.28405 48.9461 2.76994L46.1801 6.31615C44.9808 7.85366 42.6565 7.85647 41.4535 6.32187L38.6662 2.76612C38.2871 2.2825 37.7067 2 37.0921 2H36C34.8954 2 34 2.89543 34 4V20.0662C34 21.1572 34.8845 22.0417 35.9755 22.0417C37.0666 22.0417 37.9511 21.1572 37.9511 20.0662V10.2653C37.9511 9.82182 38.4856 9.59787 38.8018 9.90893L38.8986 10.0043C41.6277 12.6896 46.0079 12.6842 48.7303 9.9921L48.8382 9.88532C49.154 9.57306 49.6898 9.79674 49.6898 10.2408V20.0805C49.6898 21.1637 50.5679 22.0417 51.651 22.0417C52.7342 22.0417 53.6123 21.1637 53.6123 20.0805V4C53.6123 2.89543 52.7168 2 51.6123 2H50.5231ZM117.308 12.4857C117.04 12.1279 117.042 11.6363 117.313 11.2811L122.051 5.06135C122.961 3.86669 122.109 2.14673 120.607 2.14673C120.047 2.14673 119.518 2.40569 119.174 2.84834L114.637 8.68939C114.053 9.44164 112.848 9.02848 112.848 8.07598V4.12227C112.848 3.03121 111.963 2.14673 110.872 2.14673C109.781 2.14673 108.896 3.03121 108.896 4.12227V20.2129C108.896 21.304 109.781 22.1885 110.872 22.1885C111.963 22.1885 112.848 21.304 112.848 20.2129V15.7591C112.848 14.802 114.063 14.3917 114.643 15.1529L119.457 21.4687C119.802 21.9222 120.34 22.1885 120.91 22.1885C122.415 22.1885 123.275 20.472 122.374 19.2667L117.308 12.4857ZM141.265 9.64815C141.265 8.66778 140.471 7.87303 139.49 7.87303H138.63C138.485 7.87303 138.367 7.75504 138.367 7.6095V5.43458C138.367 4.1959 137.171 3.30843 135.985 3.6669C135.206 3.90248 134.673 4.62052 134.673 5.43458V7.61306C134.673 7.75664 134.557 7.87303 134.413 7.87303H133.589C132.608 7.87303 131.813 8.66778 131.813 9.64815C131.813 10.6285 132.608 11.4233 133.589 11.4233H134.413C134.557 11.4233 134.673 11.5397 134.673 11.6832V17.3785V20.3419C134.673 21.3618 135.5 22.1886 136.52 22.1886C137.54 22.1886 138.367 21.3623 138.367 20.3424V17.3785V11.6868C138.367 11.5413 138.485 11.4233 138.63 11.4233H139.49C140.471 11.4233 141.265 10.6285 141.265 9.64815ZM128.186 22.1886C129.205 22.1886 130.032 21.3618 130.032 20.3419V9.71975C130.032 8.69984 129.205 7.87305 128.186 7.87305C127.166 7.87305 126.339 8.69984 126.339 9.71975V20.3419C126.339 21.3618 127.166 22.1886 128.186 22.1886ZM128.602 6.58843H127.684C126.924 6.58843 126.308 5.97216 126.308 5.21194C126.308 4.45173 126.924 3.83545 127.684 3.83545H128.602C129.362 3.83545 129.978 4.45173 129.978 5.21194C129.978 5.97216 129.362 6.58843 128.602 6.58843ZM104.024 9.04663C105.055 10.106 105.57 11.5375 105.57 13.3985V20.3416C105.57 21.3615 104.743 22.1883 103.723 22.1883C102.703 22.1883 101.877 21.3615 101.877 20.3416V13.8566C101.877 12.9118 101.619 12.196 101.103 11.6521C100.617 11.1653 99.9296 10.9076 99.042 10.9076C96.952 10.9076 95.8926 12.0815 95.8926 14.4579V20.3416C95.8926 21.3615 95.0658 22.1883 94.0459 22.1883C93.026 22.1883 92.1992 21.3615 92.1992 20.3416V9.71946C92.1992 8.69955 93.026 7.87276 94.0459 7.87276H95.018C95.501 7.87276 95.8926 8.26436 95.8926 8.74742C95.8926 8.96433 96.1932 9.06154 96.3404 8.90222C97.2267 7.94292 98.4879 7.47192 100.159 7.47192C101.733 7.47192 103.022 7.98728 104.024 9.04663ZM76.176 20.4132C77.6361 21.8733 79.4113 22.5891 81.5586 22.5891C83.7059 22.5891 85.481 21.8733 86.9412 20.4132C88.4014 18.953 89.1458 17.1492 89.1458 15.0305C89.1458 12.9405 88.4014 11.1367 86.9412 9.67651C85.481 8.21633 83.6773 7.47192 81.5586 7.47192C79.4399 7.47192 77.6361 8.21633 76.176 9.67651C74.7158 11.1367 74 12.9118 74 15.0305C74 17.1778 74.7158 18.953 76.176 20.4132ZM84.3358 17.865C83.5914 18.6094 82.6752 18.9816 81.5586 18.9816C80.442 18.9816 79.5258 18.6094 78.7814 17.865C78.0656 17.092 77.6934 16.1471 77.6934 15.0305C77.6934 13.9139 78.0656 12.9691 78.7814 12.196C79.5258 11.4516 80.442 11.0794 81.5586 11.0794C82.6752 11.0794 83.5914 11.4516 84.3358 12.196C85.0802 12.9405 85.4524 13.8853 85.4524 15.0305C85.4524 16.1758 85.0802 17.1206 84.3358 17.865ZM64.0146 22.5894C61.8673 22.5894 60.0922 21.8736 58.632 20.4134C57.1718 18.9532 56.4561 17.1781 56.4561 15.0308C56.4561 12.9121 57.1718 11.1369 58.632 9.67676C60.0922 8.21657 61.896 7.47217 64.0146 7.47217C66.1333 7.47217 67.9371 8.21657 69.3973 9.67676C70.8575 11.1369 71.6019 12.9407 71.6019 15.0308C71.6019 17.1495 70.8575 18.9532 69.3973 20.4134C67.9371 21.8736 66.162 22.5894 64.0146 22.5894ZM64.0146 18.9818C65.1313 18.9818 66.0475 18.6096 66.7919 17.8652C67.5363 17.1208 67.9085 16.176 67.9085 15.0308C67.9085 13.8855 67.5363 12.9407 66.7919 12.1963C66.0475 11.4519 65.1313 11.0797 64.0146 11.0797C62.898 11.0797 61.9818 11.4519 61.2374 12.1963C60.5217 12.9693 60.1495 13.9142 60.1495 15.0308C60.1495 16.1474 60.5217 17.0922 61.2374 17.8652C61.9818 18.6096 62.898 18.9818 64.0146 18.9818Z" fill="#1F2937"/>
</svg>
