<svg width="147" height="24" viewBox="0 0 147 24" fill="none" xmlns="http://www.w3.org/2000/svg">
<path fill-rule="evenodd" clip-rule="evenodd" d="M37.5177 16.1751C37.5177 14.8606 38.5833 13.795 39.8978 13.795H43.5817C44.6702 13.795 45.5525 12.9126 45.5525 11.8242C45.5525 10.7357 44.6702 9.85335 43.5817 9.85335H39.7765C38.529 9.85335 37.5177 8.84202 37.5177 7.59449C37.5177 6.34696 38.529 5.33564 39.7765 5.33564H44.3094C45.4146 5.33564 46.3105 4.4397 46.3105 3.33451C46.3105 2.22931 45.4146 1.33337 44.3094 1.33337H37.3335C35.1244 1.33337 33.3335 3.12424 33.3335 5.33338V18.5575C33.3335 20.7666 35.1244 22.5575 37.3335 22.5575H44.461C45.5662 22.5575 46.4621 21.6616 46.4621 20.5564C46.4621 19.4512 45.5662 18.5552 44.461 18.5552H39.8978C38.5833 18.5552 37.5177 17.4896 37.5177 16.1751ZM64.9833 20.6624C66.5296 22.2088 68.4095 22.9668 70.6835 22.9668C72.9575 22.9668 74.8373 22.2088 76.3837 20.6624C77.93 19.1161 78.7183 17.2059 78.7183 14.9623C78.7183 12.7489 77.93 10.8387 76.3837 9.29238C74.8373 7.74605 72.9272 6.95772 70.6835 6.95772C68.4398 6.95772 66.5296 7.74605 64.9833 9.29238C63.4369 10.8387 62.6789 12.7186 62.6789 14.9623C62.6789 17.2363 63.4369 19.1161 64.9833 20.6624ZM73.6245 17.9639C72.8362 18.7523 71.866 19.1464 70.6835 19.1464C69.501 19.1464 68.5307 18.7523 67.7424 17.9639C66.9844 17.1453 66.5902 16.1447 66.5902 14.9623C66.5902 13.7798 66.9844 12.7792 67.7424 11.9606C68.5307 11.1722 69.501 10.7781 70.6835 10.7781C71.866 10.7781 72.8362 11.1722 73.6245 11.9606C74.4129 12.7489 74.807 13.7494 74.807 14.9623C74.807 16.1751 74.4129 17.1756 73.6245 17.9639ZM82.953 20.6624C81.437 19.1161 80.6789 17.2059 80.6789 14.9623C80.6789 12.6882 81.437 10.8084 82.953 9.26206C84.4993 7.71573 86.4095 6.95772 88.6835 6.95772C90.1692 6.95772 91.5033 7.32156 92.7161 8.01893C93.3677 8.39362 93.9318 8.84709 94.4131 9.36993C95.1092 10.1261 94.7726 11.2805 93.8857 11.7998C92.9271 12.3611 91.7178 11.8902 90.7628 11.3228C90.1834 10.9786 89.4801 10.8084 88.6532 10.8084C87.4707 10.8084 86.5004 11.2025 85.7424 11.9606C84.9844 12.7489 84.5903 13.7494 84.5903 14.9623C84.5903 16.1447 84.9844 17.115 85.7424 17.9336C86.5004 18.6916 87.4707 19.0858 88.6532 19.0858C89.4918 19.0858 90.2078 18.9171 90.7934 18.5797C91.7495 18.0287 92.9564 17.5512 93.9144 18.0986C94.8142 18.6128 95.1536 19.7784 94.4471 20.5365C93.9502 21.0698 93.3732 21.5277 92.7161 21.9056C91.4729 22.6029 90.1388 22.9668 88.6835 22.9668C86.4095 22.9668 84.4993 22.2088 82.953 20.6624ZM109.921 16.5844C110.848 16.5844 111.688 15.9043 111.688 14.9774C111.688 12.7034 110.96 10.8235 109.505 9.27719C108.08 7.73086 106.261 6.97286 104.017 6.97286C101.652 6.97286 99.7417 7.73086 98.256 9.27719C96.7703 10.8235 96.0123 12.7034 96.0123 14.9774C96.0123 17.2817 96.7703 19.1919 98.2863 20.7079C99.8023 22.2239 101.803 22.9819 104.32 22.9819C106.458 22.9819 108.22 22.3931 109.593 21.2275C110.417 20.5278 110.128 19.275 109.191 18.7346C108.383 18.2682 107.368 18.5354 106.538 18.962C105.929 19.2752 105.206 19.4345 104.381 19.4345C102.796 19.4345 101.63 19.0014 100.884 18.1257C100.314 17.4578 100.969 16.5844 101.846 16.5844H109.921ZM101.734 13.5523C100.872 13.5523 100.213 12.7158 100.702 12.0062C101.396 10.9989 102.504 10.49 104.017 10.49C105.469 10.49 106.514 11.0011 107.165 12.0126C107.627 12.7308 106.966 13.5523 106.112 13.5523H101.734ZM124.724 8.24642C125.067 8.52045 125.656 8.29893 125.656 7.86052C125.656 7.60471 125.863 7.39734 126.119 7.39734H128.234C128.97 7.39734 129.567 7.9943 129.567 8.73068V21.2241C129.567 21.9605 128.97 22.5574 128.234 22.5574H126.119C125.863 22.5574 125.656 22.3501 125.656 22.0943C125.656 21.6558 125.067 21.4343 124.724 21.7084C123.659 22.5618 122.326 22.9819 120.713 22.9819C118.682 22.9819 116.954 22.2239 115.498 20.6776C114.073 19.1313 113.346 17.2211 113.346 14.9774C113.346 12.764 114.073 10.8538 115.498 9.30751C116.954 7.76118 118.682 6.97286 120.713 6.97286C122.326 6.97286 123.659 7.39295 124.724 8.24642ZM121.441 19.2525C122.654 19.2525 123.654 18.8584 124.443 18.07C125.261 17.2514 125.656 16.2205 125.656 14.9774C125.656 13.7343 125.261 12.7034 124.443 11.915C123.654 11.0964 122.654 10.7022 121.441 10.7022C120.228 10.7022 119.228 11.0964 118.439 11.915C117.651 12.7034 117.257 13.7343 117.257 14.9774C117.257 16.2205 117.651 17.2514 118.439 18.07C119.228 18.8584 120.228 19.2525 121.441 19.2525ZM144.535 8.64047C145.626 9.76232 146.172 11.2783 146.172 13.2491V20.6018C146.172 21.6819 145.296 22.5574 144.216 22.5574C143.136 22.5574 142.26 21.6819 142.26 20.6018V13.7343C142.26 12.7337 141.988 11.9757 141.442 11.3996C140.926 10.8842 140.199 10.6113 139.259 10.6113C137.045 10.6113 135.924 11.8544 135.924 14.371V19.9499C135.924 21.39 134.756 22.5574 133.316 22.5574C132.596 22.5574 132.012 21.9737 132.012 21.2537V8.73067C132.012 7.9943 132.609 7.39734 133.346 7.39734H135.532C135.748 7.39734 135.924 7.57281 135.924 7.78926C135.924 8.17803 136.487 8.3692 136.783 8.11807C137.69 7.35057 138.902 6.97286 140.441 6.97286C142.109 6.97286 143.473 7.51862 144.535 8.64047ZM54.0257 16.1944C54.2323 16.792 55.0771 16.7931 55.2853 16.196L57.8862 8.7344C58.1652 7.93377 58.9203 7.39734 59.7682 7.39734C61.1635 7.39734 62.1269 8.79411 61.6313 10.0984L57.6885 20.4742C57.2119 21.7283 56.0099 22.5574 54.6683 22.5574C53.3267 22.5574 52.1247 21.7283 51.6482 20.4742L47.7044 10.096C47.2092 8.79287 48.1718 7.39734 49.5659 7.39734C50.4149 7.39734 51.1705 7.93562 51.4479 8.73801L54.0257 16.1944Z" fill="#1E293B"/>
<path d="M11.1566 21.2259L9.70336 16.8628C9.2941 15.6509 8.35031 14.7064 7.13924 14.2968L2.77106 12.8341C-0.962365 11.5887 -0.912252 6.2728 2.85458 5.11099L4 4.66667C5.33333 4.33333 6.33333 4.66667 7.33333 5L20.9704 10.3517C21.5969 10.5941 21.9309 11.2794 21.7305 11.9147L18.8657 21.1507C17.7131 24.9119 12.4011 24.9621 11.1566 21.2259Z" fill="#4F46E5"/>
<path d="M21.3307 8.67258L15.0155 3.64622C13.9304 2.79552 14.3172 1.63441 15.4774 1.24738L18.7332 0.188854C21.8569 -0.780714 24.7801 2.14471 23.8113 5.27073L23.0011 7.87017C22.7756 8.56392 22.0239 8.93168 21.3307 8.67258Z" fill="#4F46E5"/>
</svg>
