<svg width="14" height="14" viewBox="0 0 14 14" fill="none" xmlns="http://www.w3.org/2000/svg">
<path d="M1.3125 1.3125C1.07088 1.3125 0.875 1.50838 0.875 1.75C0.875 1.99162 1.07088 2.1875 1.3125 2.1875H2.12082C2.21992 2.1875 2.30665 2.25413 2.33218 2.34989L3.82419 7.94493C2.88271 8.18913 2.1875 9.04463 2.1875 10.0625C2.1875 10.3041 2.38338 10.5 2.625 10.5H11.8125C12.0541 10.5 12.25 10.3041 12.25 10.0625C12.25 9.82088 12.0541 9.625 11.8125 9.625H3.13718C3.31736 9.11523 3.80353 8.75 4.375 8.75H10.919C11.0863 8.75 11.239 8.65457 11.3123 8.50415C11.9745 7.14526 12.5523 5.73768 13.0391 4.28823C13.0778 4.17291 13.0668 4.04668 13.0086 3.93983C12.9505 3.83298 12.8505 3.75517 12.7326 3.72506C9.91987 3.00674 6.97295 2.625 3.9375 2.625C3.72877 2.625 3.52045 2.62681 3.31256 2.6304L3.17764 2.12443C3.04996 1.64563 2.61634 1.3125 2.12082 1.3125H1.3125Z" fill="#111827"/>
<path d="M2.1875 11.8125C2.1875 11.3293 2.57925 10.9375 3.0625 10.9375C3.54575 10.9375 3.9375 11.3293 3.9375 11.8125C3.9375 12.2957 3.54575 12.6875 3.0625 12.6875C2.57925 12.6875 2.1875 12.2957 2.1875 11.8125Z" fill="#111827"/>
<path d="M9.625 11.8125C9.625 11.3293 10.0168 10.9375 10.5 10.9375C10.9832 10.9375 11.375 11.3293 11.375 11.8125C11.375 12.2957 10.9832 12.6875 10.5 12.6875C10.0168 12.6875 9.625 12.2957 9.625 11.8125Z" fill="#111827"/>
</svg>
