<svg width="20" height="20" viewBox="0 0 20 20" fill="none" xmlns="http://www.w3.org/2000/svg">
<g id="Icon/App/SOL 2">
<path id="Vector" fill-rule="evenodd" clip-rule="evenodd" d="M0.747667 8.45802H16.7261C16.9263 8.45802 17.1163 8.5351 17.2544 8.67249L19.7822 11.1422C20.2484 11.5979 19.9169 12.3753 19.2539 12.3753H3.27548C3.07519 12.3753 2.88526 12.2982 2.74712 12.1608L0.219313 9.69118C-0.250335 9.23545 0.0846349 8.45802 0.747667 8.45802ZM0.219313 5.18413L2.74712 2.71446C2.88871 2.57707 3.07864 2.5 3.27548 2.5H19.2504C19.9134 2.5 20.2484 3.27742 19.7788 3.73316L17.2544 6.20282C17.1128 6.34021 16.9229 6.41728 16.7261 6.41728H0.747667C0.0846349 6.41728 -0.250335 5.63986 0.219313 5.18413ZM19.7788 15.6492L17.251 18.1189C17.1094 18.2563 16.9194 18.3333 16.7226 18.3333H0.747667C0.0846349 18.3333 -0.250335 17.5559 0.219313 17.1002L2.74712 14.6305C2.88871 14.4931 3.07864 14.416 3.27548 14.416H19.2504C19.9134 14.416 20.2484 15.1935 19.7788 15.6492Z" fill="url(#paint0_linear_461_14156)"/>
</g>
<defs>
<linearGradient id="paint0_linear_461_14156" x1="1.13857" y1="19.0146" x2="18.3266" y2="1.30167" gradientUnits="userSpaceOnUse">
<stop stop-color="#CB4EE8"/>
<stop offset="1" stop-color="#10F4B1"/>
</linearGradient>
</defs>
</svg>
