<svg width="14" height="14" viewBox="0 0 14 14" fill="none" xmlns="http://www.w3.org/2000/svg">
<g clip-path="url(#clip0_263_6628)">
<path d="M7 0C10.8654 0 14 3.1346 14 7C14 10.8654 10.8654 14 7 14C3.1346 14 0 10.8654 0 7C0 3.1346 3.1346 0 7 0Z" fill="black"/>
<path fill-rule="evenodd" clip-rule="evenodd" d="M3.23695 6.33216H9.71475C9.79595 6.33216 9.87295 6.36436 9.92895 6.42176L10.9538 7.45356C11.1428 7.64396 11.0084 7.96876 10.7396 7.96876H4.26175C4.18055 7.96876 4.10355 7.93656 4.04755 7.87916L3.02275 6.84736C2.83235 6.65696 2.96815 6.33216 3.23695 6.33216ZM3.02275 4.96436L4.04755 3.93256C4.10495 3.87516 4.18195 3.84296 4.26175 3.84296H10.7382C11.007 3.84296 11.1428 4.16776 10.9524 4.35816L9.92895 5.38996C9.87155 5.44736 9.79455 5.47956 9.71475 5.47956H3.23695C2.96815 5.47956 2.83235 5.15476 3.02275 4.96436ZM10.9524 9.33656L9.92755 10.3684C9.87015 10.4258 9.79315 10.458 9.71335 10.458H3.23695C2.96815 10.458 2.83235 10.1332 3.02275 9.94276L4.04755 8.91096C4.10495 8.85356 4.18195 8.82136 4.26175 8.82136H10.7382C11.007 8.82136 11.1428 9.14616 10.9524 9.33656Z" fill="url(#paint0_linear_263_6628)"/>
</g>
<defs>
<linearGradient id="paint0_linear_263_6628" x1="3.39543" y1="10.7426" x2="10.5797" y2="3.55833" gradientUnits="userSpaceOnUse">
<stop stop-color="#CB4EE8"/>
<stop offset="1" stop-color="#10F4B1"/>
</linearGradient>
<clipPath id="clip0_263_6628">
<rect width="14" height="14" fill="white"/>
</clipPath>
</defs>
</svg>
