<svg width="24" height="24" viewBox="0 0 24 24" fill="none" xmlns="http://www.w3.org/2000/svg">
<g id="Frame">
<g id="Group">
<g id="Group_2">
<path id="Vector" fill-rule="evenodd" clip-rule="evenodd" d="M11.6118 2.65839C11.7267 2.58185 11.8617 2.54102 11.9998 2.54102C12.1378 2.54102 12.2728 2.58185 12.3878 2.65839L20.7278 8.21839C21.3038 8.60239 21.0318 9.50039 20.3388 9.50039H3.66075C2.96775 9.50039 2.69575 8.60239 3.27175 8.21839L11.6118 2.65839ZM11.9998 3.60039L4.65075 8.50039H19.3498L11.9998 3.60039ZM17.9998 17.0004C17.8671 17.0004 17.74 16.9477 17.6462 16.8539C17.5524 16.7602 17.4998 16.633 17.4998 16.5004V11.0004C17.4998 10.8678 17.5524 10.7406 17.6462 10.6468C17.74 10.5531 17.8671 10.5004 17.9998 10.5004C18.1324 10.5004 18.2595 10.5531 18.3533 10.6468C18.4471 10.7406 18.4998 10.8678 18.4998 11.0004V16.5004C18.4998 16.633 18.4471 16.7602 18.3533 16.8539C18.2595 16.9477 18.1324 17.0004 17.9998 17.0004ZM13.9998 17.0004C13.8671 17.0004 13.74 16.9477 13.6462 16.8539C13.5524 16.7602 13.4998 16.633 13.4998 16.5004V11.0004C13.4998 10.8678 13.5524 10.7406 13.6462 10.6468C13.74 10.5531 13.8671 10.5004 13.9998 10.5004C14.1324 10.5004 14.2595 10.5531 14.3533 10.6468C14.4471 10.7406 14.4998 10.8678 14.4998 11.0004V16.5004C14.4998 16.633 14.4471 16.7602 14.3533 16.8539C14.2595 16.9477 14.1324 17.0004 13.9998 17.0004ZM9.99975 17.0004C9.86714 17.0004 9.73997 16.9477 9.6462 16.8539C9.55243 16.7602 9.49975 16.633 9.49975 16.5004V11.0004C9.49975 10.8678 9.55243 10.7406 9.6462 10.6468C9.73997 10.5531 9.86714 10.5004 9.99975 10.5004C10.1324 10.5004 10.2595 10.5531 10.3533 10.6468C10.4471 10.7406 10.4998 10.8678 10.4998 11.0004V16.5004C10.4998 16.633 10.4471 16.7602 10.3533 16.8539C10.2595 16.9477 10.1324 17.0004 9.99975 17.0004ZM5.99975 17.0004C5.86714 17.0004 5.73997 16.9477 5.6462 16.8539C5.55243 16.7602 5.49975 16.633 5.49975 16.5004V11.0004C5.49975 10.8678 5.55243 10.7406 5.6462 10.6468C5.73997 10.5531 5.86714 10.5004 5.99975 10.5004C6.13236 10.5004 6.25954 10.5531 6.35331 10.6468C6.44707 10.7406 6.49975 10.8678 6.49975 11.0004V16.5004C6.49975 16.633 6.44707 16.7602 6.35331 16.8539C6.25954 16.9477 6.13236 17.0004 5.99975 17.0004ZM3.49975 19.5004C3.49975 19.1026 3.65779 18.721 3.93909 18.4397C4.2204 18.1584 4.60193 18.0004 4.99975 18.0004H18.9998C19.3976 18.0004 19.7791 18.1584 20.0604 18.4397C20.3417 18.721 20.4998 19.1026 20.4998 19.5004C20.4998 19.8982 20.3417 20.2797 20.0604 20.561C19.7791 20.8424 19.3976 21.0004 18.9998 21.0004H4.99975C4.60193 21.0004 4.2204 20.8424 3.93909 20.561C3.65779 20.2797 3.49975 19.8982 3.49975 19.5004ZM4.99975 19.0004C4.86714 19.0004 4.73997 19.0531 4.6462 19.1468C4.55243 19.2406 4.49975 19.3678 4.49975 19.5004C4.49975 19.633 4.55243 19.7602 4.6462 19.8539C4.73997 19.9477 4.86714 20.0004 4.99975 20.0004H18.9998C19.1324 20.0004 19.2595 19.9477 19.3533 19.8539C19.4471 19.7602 19.4998 19.633 19.4998 19.5004C19.4998 19.3678 19.4471 19.2406 19.3533 19.1468C19.2595 19.0531 19.1324 19.0004 18.9998 19.0004H4.99975Z" fill="black"/>
</g>
</g>
</g>
</svg>
