<svg width="14" height="14" viewBox="0 0 14 14" fill="none" xmlns="http://www.w3.org/2000/svg">
<g id="heroicons-solid/chart-bar-square">
<path id="Icon" fill-rule="evenodd" clip-rule="evenodd" d="M1.75 3.5C1.75 2.5335 2.5335 1.75 3.5 1.75H10.5C11.4665 1.75 12.25 2.5335 12.25 3.5V10.5C12.25 11.4665 11.4665 12.25 10.5 12.25H3.5C2.5335 12.25 1.75 11.4665 1.75 10.5V3.5ZM4.375 7.875C4.61662 7.875 4.8125 8.07088 4.8125 8.3125V9.625C4.8125 9.86662 4.61662 10.0625 4.375 10.0625C4.13338 10.0625 3.9375 9.86662 3.9375 9.625V8.3125C3.9375 8.07088 4.13338 7.875 4.375 7.875ZM6.5625 7C6.5625 6.75838 6.36662 6.5625 6.125 6.5625C5.88338 6.5625 5.6875 6.75838 5.6875 7V9.625C5.6875 9.86662 5.88338 10.0625 6.125 10.0625C6.36662 10.0625 6.5625 9.86662 6.5625 9.625V7ZM7.875 5.25C8.11662 5.25 8.3125 5.44588 8.3125 5.6875V9.625C8.3125 9.86662 8.11662 10.0625 7.875 10.0625C7.63338 10.0625 7.4375 9.86662 7.4375 9.625V5.6875C7.4375 5.44588 7.63338 5.25 7.875 5.25ZM10.0625 4.375C10.0625 4.13338 9.86662 3.9375 9.625 3.9375C9.38338 3.9375 9.1875 4.13338 9.1875 4.375V9.625C9.1875 9.86662 9.38338 10.0625 9.625 10.0625C9.86662 10.0625 10.0625 9.86662 10.0625 9.625V4.375Z" fill="#4F46E5"/>
</g>
</svg>
