<svg width="16" height="16" viewBox="0 0 16 16" fill="none" xmlns="http://www.w3.org/2000/svg">
<path fill-rule="evenodd" clip-rule="evenodd" d="M0.6875 8C0.6875 3.96142 3.96142 0.6875 8 0.6875C12.0386 0.6875 15.3125 3.96142 15.3125 8C15.3125 12.0386 12.0386 15.3125 8 15.3125C3.96142 15.3125 0.6875 12.0386 0.6875 8ZM10.7077 6.63945C10.8883 6.38665 10.8297 6.03534 10.5769 5.85478C10.3242 5.67421 9.97284 5.73276 9.79227 5.98555L7.36572 9.38273L6.14775 8.16475C5.92808 7.94508 5.57192 7.94508 5.35225 8.16475C5.13258 8.38442 5.13258 8.74058 5.35225 8.96025L7.03975 10.6477C7.15667 10.7647 7.31911 10.8242 7.4839 10.8106C7.64868 10.7969 7.79912 10.7115 7.89523 10.5769L10.7077 6.63945Z" fill="#22BB5F"/>
</svg>
