<svg width="18" height="18" viewBox="0 0 18 18" fill="none" xmlns="http://www.w3.org/2000/svg">
<path fill-rule="evenodd" clip-rule="evenodd" d="M6.45216 2.84907C7.07029 2.1382 7.98249 1.6875 9 1.6875C10.0175 1.6875 10.9296 2.13815 11.5477 2.84896C12.4876 2.7833 13.4514 3.10962 14.171 3.82918C14.8905 4.54874 15.2169 5.51257 15.1512 6.45239C15.8619 7.07052 16.3125 7.98261 16.3125 9C16.3125 10.0176 15.8617 10.9298 15.1508 11.548C15.2163 12.4876 14.89 13.4513 14.1705 14.1707C13.4511 14.8901 12.4875 15.2165 11.5478 15.151C10.9297 15.8618 10.0175 16.3125 9 16.3125C7.98255 16.3125 7.0704 15.8619 6.45228 15.1511C5.51244 15.2167 4.5486 14.8904 3.82903 14.1708C3.10947 13.4513 2.78314 12.4874 2.84881 11.5476C2.13809 10.9295 1.6875 10.0174 1.6875 9C1.6875 7.98256 2.13813 7.07042 2.84892 6.45229C2.78332 5.51254 3.10965 4.5488 3.82915 3.8293C4.54866 3.1098 5.5124 2.78347 6.45216 2.84907ZM11.7077 7.63945C11.8883 7.38665 11.8297 7.03534 11.5769 6.85477C11.3242 6.67421 10.9728 6.73276 10.7923 6.98555L8.36572 10.3827L7.14775 9.16475C6.92808 8.94508 6.57192 8.94508 6.35225 9.16475C6.13258 9.38442 6.13258 9.74058 6.35225 9.96025L8.03975 11.6477C8.15667 11.7647 8.31911 11.8242 8.4839 11.8106C8.64868 11.7969 8.79912 11.7115 8.89523 11.5769L11.7077 7.63945Z" fill="#4338CA"/>
</svg>
