<svg width="38" height="38" viewBox="0 0 38 38" fill="none" xmlns="http://www.w3.org/2000/svg">
<rect width="38" height="38" rx="19" fill="white"/>
<path fill-rule="evenodd" clip-rule="evenodd" d="M12.4697 12.4697C12.7626 12.1768 13.2374 12.1768 13.5303 12.4697L19 17.9393L24.4697 12.4697C24.7626 12.1768 25.2374 12.1768 25.5303 12.4697C25.8232 12.7626 25.8232 13.2374 25.5303 13.5303L20.0607 19L25.5303 24.4697C25.8232 24.7626 25.8232 25.2374 25.5303 25.5303C25.2374 25.8232 24.7626 25.8232 24.4697 25.5303L19 20.0607L13.5303 25.5303C13.2374 25.8232 12.7626 25.8232 12.4697 25.5303C12.1768 25.2374 12.1768 24.7626 12.4697 24.4697L17.9393 19L12.4697 13.5303C12.1768 13.2374 12.1768 12.7626 12.4697 12.4697Z" fill="#9CA3AF"/>
</svg>
