<svg width="20" height="20" viewBox="0 0 20 20" fill="none" xmlns="http://www.w3.org/2000/svg">
<path d="M10.417 10C10.417 9.26329 10.7023 8.55675 11.2102 8.03581C11.7182 7.51488 12.407 7.22222 13.1253 7.22222C13.8436 7.22222 14.5325 7.51488 15.0404 8.03581C15.5483 8.55675 15.8337 9.26329 15.8337 10C15.8337 10.7367 15.5483 11.4432 15.0404 11.9642C14.5325 12.4851 13.8436 12.7778 13.1253 12.7778C12.407 12.7778 11.7182 12.4851 11.2102 11.9642C10.7023 11.4432 10.417 10.7367 10.417 10Z" fill="#1ABCFE"/>
<path d="M5 15.5556C5 14.8188 5.28534 14.1123 5.79325 13.5914C6.30116 13.0704 6.99004 12.7778 7.70833 12.7778H10.4167V15.5556C10.4167 16.2923 10.1313 16.9988 9.62341 17.5197C9.1155 18.0407 8.42663 18.3333 7.70833 18.3333C6.99004 18.3333 6.30116 18.0407 5.79325 17.5197C5.28534 16.9988 5 16.2923 5 15.5556V15.5556Z" fill="#0ACF83"/>
<path d="M10.417 1.66667V7.22222H13.1253C13.8436 7.22222 14.5325 6.92957 15.0404 6.40863C15.5483 5.8877 15.8337 5.18116 15.8337 4.44445C15.8337 3.70773 15.5483 3.00119 15.0404 2.48026C14.5325 1.95933 13.8436 1.66667 13.1253 1.66667L10.417 1.66667Z" fill="#FF7262"/>
<path d="M5 4.44445C5 5.18116 5.28534 5.8877 5.79325 6.40863C6.30116 6.92957 6.99004 7.22222 7.70833 7.22222H10.4167V1.66667H7.70833C6.99004 1.66667 6.30116 1.95933 5.79325 2.48026C5.28534 3.00119 5 3.70773 5 4.44445V4.44445Z" fill="#F24E1E"/>
<path d="M5 10C5 10.7367 5.28534 11.4432 5.79325 11.9642C6.30116 12.4851 6.99004 12.7778 7.70833 12.7778H10.4167V7.22222H7.70833C6.99004 7.22222 6.30116 7.51488 5.79325 8.03581C5.28534 8.55675 5 9.26329 5 10V10Z" fill="#A259FF"/>
</svg>
