<svg width="14" height="14" viewBox="0 0 14 14" fill="none" xmlns="http://www.w3.org/2000/svg">
<g id="heroicons-solid/identification">
<path id="Icon" fill-rule="evenodd" clip-rule="evenodd" d="M2.625 2.1875C1.6585 2.1875 0.875 2.971 0.875 3.9375V10.0625C0.875 11.029 1.6585 11.8125 2.625 11.8125H11.375C12.3415 11.8125 13.125 11.029 13.125 10.0625V3.9375C13.125 2.971 12.3415 2.1875 11.375 2.1875H2.625ZM5.03125 3.9375C4.30638 3.9375 3.71875 4.52513 3.71875 5.25C3.71875 5.97487 4.30638 6.5625 5.03125 6.5625C5.75612 6.5625 6.34375 5.97487 6.34375 5.25C6.34375 4.52513 5.75612 3.9375 5.03125 3.9375ZM2.77195 9.01412C3.10969 8.09461 3.99316 7.4375 5.03122 7.4375C6.06928 7.4375 6.95276 8.09461 7.2905 9.01412C7.36582 9.21918 7.27833 9.44838 7.08552 9.55109C6.47254 9.87763 5.77282 10.0625 5.03122 10.0625C4.28963 10.0625 3.58991 9.87763 2.97693 9.55109C2.78412 9.44838 2.69663 9.21918 2.77195 9.01412ZM8.75 4.8125C8.50838 4.8125 8.3125 5.00838 8.3125 5.25C8.3125 5.49162 8.50838 5.6875 8.75 5.6875H10.9375C11.1791 5.6875 11.375 5.49162 11.375 5.25C11.375 5.00838 11.1791 4.8125 10.9375 4.8125H8.75ZM8.3125 7C8.3125 6.75838 8.50838 6.5625 8.75 6.5625H10.9375C11.1791 6.5625 11.375 6.75838 11.375 7C11.375 7.24162 11.1791 7.4375 10.9375 7.4375H8.75C8.50838 7.4375 8.3125 7.24162 8.3125 7ZM8.75 8.3125C8.50838 8.3125 8.3125 8.50838 8.3125 8.75C8.3125 8.99162 8.50838 9.1875 8.75 9.1875H10.9375C11.1791 9.1875 11.375 8.99162 11.375 8.75C11.375 8.50838 11.1791 8.3125 10.9375 8.3125H8.75Z" fill="#4F46E5"/>
</g>
</svg>
