<svg width="18" height="21" viewBox="0 0 18 21" fill="none" xmlns="http://www.w3.org/2000/svg">
<path fill-rule="evenodd" clip-rule="evenodd" d="M1.6875 12C1.6875 7.96142 4.96142 4.6875 9 4.6875C13.0386 4.6875 16.3125 7.96142 16.3125 12C16.3125 16.0386 13.0386 19.3125 9 19.3125C4.96142 19.3125 1.6875 16.0386 1.6875 12ZM8.21718 10.9188C9.07686 10.489 10.0448 11.2655 9.81171 12.1979L9.27995 14.325L9.31106 14.3094C9.58893 14.1705 9.92681 14.2831 10.0657 14.561C10.2047 14.8388 10.092 15.1767 9.81418 15.3156L9.78307 15.3312C8.92339 15.761 7.95543 14.9846 8.18854 14.0521L8.7203 11.9251L8.68918 11.9406C8.41132 12.0796 8.07344 11.9669 7.93451 11.6891C7.79558 11.4112 7.9082 11.0733 8.18607 10.9344L8.21718 10.9188ZM9 9.75C9.31066 9.75 9.5625 9.49816 9.5625 9.1875C9.5625 8.87684 9.31066 8.625 9 8.625C8.68934 8.625 8.4375 8.87684 8.4375 9.1875C8.4375 9.49816 8.68934 9.75 9 9.75Z" fill="#4338CA"/>
</svg>
