<svg width="36" height="36" viewBox="0 0 36 36" fill="none" xmlns="http://www.w3.org/2000/svg">
<path fill-rule="evenodd" clip-rule="evenodd" d="M18 5.625C18.6213 5.625 19.125 6.12868 19.125 6.75V16.875H29.25C29.8713 16.875 30.375 17.3787 30.375 18C30.375 18.6213 29.8713 19.125 29.25 19.125H19.125V29.25C19.125 29.8713 18.6213 30.375 18 30.375C17.3787 30.375 16.875 29.8713 16.875 29.25V19.125H6.75C6.12868 19.125 5.625 18.6213 5.625 18C5.625 17.3787 6.12868 16.875 6.75 16.875H16.875V6.75C16.875 6.12868 17.3787 5.625 18 5.625Z" fill="#4B5563"/>
</svg>
