<svg width="33" height="34" viewBox="0 0 33 34" fill="none" xmlns="http://www.w3.org/2000/svg">
<path d="M0 4.5C0 2.29086 1.79086 0.5 4 0.5H29C31.2091 0.5 33 2.29086 33 4.5V29.5C33 31.7091 31.2091 33.5 29 33.5H4C1.79086 33.5 0 31.7091 0 29.5V4.5Z" fill="#D1D5DB"/>
<rect width="20" height="20" transform="translate(6.5 7)" fill="#D1D5DB"/>
<path fill-rule="evenodd" clip-rule="evenodd" d="M20.2501 10.7318V10.9208C21.0457 10.9936 21.8347 11.0894 22.6165 11.2075C22.9059 11.2512 23.1944 11.298 23.4818 11.3477C23.8219 11.4067 24.0498 11.7301 23.9909 12.0703C23.932 12.4104 23.6085 12.6383 23.2684 12.5794C23.2104 12.5694 23.1524 12.5594 23.0943 12.5496L22.2564 23.4417C22.1562 24.7442 21.0701 25.75 19.7638 25.75H13.2364C11.9301 25.75 10.844 24.7442 10.7438 23.4417L9.90592 12.5496C9.84783 12.5594 9.78978 12.5694 9.73178 12.5794C9.39167 12.6383 9.06819 12.4104 9.00927 12.0703C8.95036 11.7301 9.17831 11.4067 9.51843 11.3477C9.80584 11.298 10.0943 11.2512 10.3837 11.2075C11.1655 11.0894 11.9545 10.9936 12.7501 10.9208V10.7318C12.7501 9.4281 13.7605 8.31515 15.0963 8.27242C15.5624 8.25751 16.0304 8.25 16.5001 8.25C16.9698 8.25 17.4378 8.25751 17.9039 8.27242C19.2397 8.31515 20.2501 9.4281 20.2501 10.7318ZM15.1363 9.52178C15.5891 9.5073 16.0437 9.5 16.5001 9.5C16.9565 9.5 17.4111 9.5073 17.8639 9.52178C18.4928 9.5419 19.0001 10.0699 19.0001 10.7318V10.8257C18.1731 10.7755 17.3396 10.75 16.5001 10.75C15.6607 10.75 14.8271 10.7755 14.0001 10.8257V10.7318C14.0001 10.0699 14.5074 9.5419 15.1363 9.52178ZM14.8406 14.476C14.8273 14.1311 14.537 13.8622 14.192 13.8755C13.8471 13.8887 13.5783 14.1791 13.5915 14.524L13.88 22.024C13.8933 22.3689 14.1836 22.6378 14.5285 22.6245C14.8735 22.6113 15.1423 22.3209 15.1291 21.976L14.8406 14.476ZM19.4079 14.524C19.4212 14.1791 19.1523 13.8887 18.8074 13.8755C18.4625 13.8622 18.1721 14.1311 18.1588 14.476L17.8704 21.976C17.8571 22.3209 18.126 22.6113 18.4709 22.6245C18.8158 22.6378 19.1062 22.3689 19.1194 22.024L19.4079 14.524Z" fill="white"/>
</svg>
