<svg width="45" height="50" viewBox="0 0 45 50" fill="none" xmlns="http://www.w3.org/2000/svg">
<path d="M0 4C0 1.79086 1.79086 0 4 0H41C43.2091 0 45 1.79086 45 4V46C45 48.2091 43.2091 50 41 50H4C1.79086 50 0 48.2091 0 46V4Z" fill="#6366F1"/>
<path fill-rule="evenodd" clip-rule="evenodd" d="M27.8125 23.375C28.9861 23.375 29.9375 22.4236 29.9375 21.25V14.875C29.9375 13.7014 28.9861 12.75 27.8125 12.75H24.0026C23.8617 12.75 23.7266 12.694 23.627 12.5944L22.1243 11.0918C21.8255 10.7929 21.4201 10.625 20.9974 10.625H17.1875C16.0139 10.625 15.0625 11.5764 15.0625 12.75V21.25C15.0625 22.4236 16.0139 23.375 17.1875 23.375H27.8125ZM20.375 17.5312C20.0816 17.5312 19.8438 17.7691 19.8438 18.0625C19.8438 18.3559 20.0816 18.5938 20.375 18.5938H24.625C24.9184 18.5938 25.1562 18.3559 25.1562 18.0625C25.1562 17.7691 24.9184 17.5312 24.625 17.5312H20.375Z" fill="white"/>
<path d="M13.5964 37.5V36.4048L17.9515 30.294H13.5879V28.7727H20.2697V29.8679L15.9103 35.9787H20.2782V37.5H13.5964ZM23.5392 28.7727V37.5H21.6941V28.7727H23.5392ZM25.0574 37.5V28.7727H28.5005C29.1625 28.7727 29.7264 28.8991 30.1923 29.152C30.6582 29.402 31.0133 29.75 31.2576 30.196C31.5048 30.6392 31.6284 31.1506 31.6284 31.7301C31.6284 32.3097 31.5034 32.821 31.2534 33.2642C31.0034 33.7074 30.6412 34.0526 30.1667 34.2997C29.6951 34.5469 29.1241 34.6705 28.4537 34.6705H26.2591V33.1918H28.1554C28.5105 33.1918 28.8031 33.1307 29.0332 33.0085C29.2662 32.8835 29.4395 32.7116 29.5531 32.4929C29.6696 32.2713 29.7278 32.017 29.7278 31.7301C29.7278 31.4403 29.6696 31.1875 29.5531 30.9716C29.4395 30.7528 29.2662 30.5838 29.0332 30.4645C28.8002 30.3423 28.5048 30.2812 28.1468 30.2812H26.9025V37.5H25.0574Z" fill="white"/>
</svg>
