<svg width="24" height="24" viewBox="0 0 24 24" fill="none" xmlns="http://www.w3.org/2000/svg">
<g id="Icon">
<path id="Vector" d="M18.1772 16.0418C17.3847 16.8505 16.276 17.3077 15.0751 17.3093C13.8734 17.3117 12.764 16.8577 11.9714 16.0515C11.5839 15.6584 11.2999 15.2075 11.1235 14.7254C10.951 14.2521 10.8852 13.7459 10.9293 13.2445C10.9718 12.7552 11.1162 12.2795 11.3545 11.8495C11.5863 11.4292 11.9048 11.0497 12.2979 10.7288C13.068 10.1007 14.0483 9.76138 15.0751 9.75977C16.1019 9.75817 17.0814 10.0959 17.8523 10.7208C18.2446 11.0409 18.5631 11.4187 18.7941 11.8383C19.0324 12.2683 19.1776 12.7432 19.2201 13.2325C19.2642 13.7347 19.1976 14.2401 19.0252 14.7142C18.8487 15.1955 18.5639 15.6471 18.1772 16.0418Z" fill="white"/>
<path id="Vector_2" d="M12.5126 13.2962C12.5487 12.6424 12.8696 12.0656 13.3525 11.6573C13.8266 11.2554 14.4652 11.0107 15.1607 11.0107C15.857 11.0115 16.4948 11.2562 16.9689 11.6573C17.4518 12.0664 17.7727 12.6424 17.8096 13.2962C17.8465 13.9685 17.5761 14.5934 17.102 15.0563C16.6191 15.5271 15.9308 15.8232 15.1607 15.8232C14.3906 15.8232 13.7015 15.5271 13.2186 15.0563C12.7453 14.5934 12.4757 13.9685 12.5126 13.2962Z" fill="#005385"/>
<path id="Vector_3" d="M8.2936 14.6196C8.29841 14.8747 8.38024 15.3721 8.50217 15.7611C8.75968 16.5834 9.19608 17.3447 9.80415 18.0153C10.4283 18.7044 11.1952 19.2579 12.0824 19.6502C13.0154 20.0633 14.0253 20.2743 15.0738 20.2719C16.1223 20.2703 17.1323 20.0561 18.0644 19.6398C18.9509 19.2427 19.7178 18.6876 20.3411 17.9969C20.9484 17.323 21.384 16.5609 21.6415 15.7387C21.7698 15.3287 21.8524 14.906 21.8861 14.4784C21.9182 14.0613 21.9046 13.6409 21.846 13.2262C21.7305 12.4127 21.4489 11.6498 21.0158 10.9543C20.6187 10.3158 20.1085 9.75583 19.5012 9.28413L19.502 9.28333L13.3748 4.57921C13.3699 4.5752 13.3643 4.57038 13.3595 4.56637C12.956 4.25833 12.2806 4.25913 11.8385 4.56878C11.3909 4.88164 11.3404 5.39906 11.7375 5.72556L11.7359 5.72636L14.2917 7.80567L6.49987 7.81369H6.48944C5.84608 7.8145 5.22678 8.23726 5.10404 8.77072C4.97889 9.31462 5.4161 9.76545 6.08594 9.76866L6.08513 9.77107L10.0344 9.76305L2.98702 15.1723C2.9782 15.1795 2.96857 15.1859 2.96055 15.1924C2.29632 15.701 2.08133 16.5481 2.49928 17.084C2.92445 17.6287 3.82773 17.6295 4.49998 17.0864L8.34574 13.9393C8.34574 13.9393 8.28959 14.3645 8.2936 14.6196ZM18.1768 16.0419C17.3842 16.8505 16.2755 17.3078 15.0746 17.3094C13.8729 17.3118 12.7635 16.8577 11.9709 16.0515C11.5834 15.6584 11.2995 15.2076 11.123 14.7255C10.9505 14.2522 10.8847 13.746 10.9288 13.2446C10.9714 12.7553 11.1158 12.2796 11.354 11.8496C11.5858 11.4292 11.9043 11.0498 12.2974 10.7289C13.0675 10.1008 14.0478 9.76144 15.0746 9.75984C16.1015 9.75823 17.0809 10.096 17.8519 10.7209C18.2441 11.041 18.5626 11.4188 18.7936 11.8383C19.0319 12.2683 19.1771 12.7432 19.2196 13.2326C19.2637 13.7348 19.1972 14.2401 19.0247 14.7143C18.8482 15.1956 18.5634 15.6472 18.1768 16.0419Z" fill="#FF7021"/>
</g>
</svg>
