<svg width="13" height="13" viewBox="0 0 13 13" fill="none" xmlns="http://www.w3.org/2000/svg">
<path d="M11.6765 1.32349C11.0785 0.725502 10.109 0.725502 9.51099 1.32349L8.83599 1.9985L11.0015 4.16401L11.6765 3.48901C12.2745 2.89102 12.2745 1.92148 11.6765 1.32349Z" fill="#4F46E5"/>
<path d="M10.3828 4.78273L8.21727 2.61721L3.31678 7.51771C2.95699 7.8775 2.69251 8.32127 2.54725 8.80892L2.08071 10.3751C2.03485 10.5291 2.07705 10.6958 2.19064 10.8094C2.30423 10.9229 2.47094 10.9651 2.6249 10.9193L4.19109 10.4527C4.67874 10.3075 5.12251 10.043 5.4823 9.68321L10.3828 4.78273Z" fill="#4F46E5"/>
<path d="M2.0625 3.06249C1.096 3.06249 0.3125 3.846 0.3125 4.81249V10.9375C0.3125 11.904 1.096 12.6875 2.0625 12.6875H8.1875C9.154 12.6875 9.9375 11.904 9.9375 10.9375V7.875C9.9375 7.63337 9.74162 7.4375 9.5 7.4375C9.25838 7.4375 9.0625 7.63337 9.0625 7.875V10.9375C9.0625 11.4207 8.67075 11.8125 8.1875 11.8125H2.0625C1.57925 11.8125 1.1875 11.4207 1.1875 10.9375V4.81249C1.1875 4.32925 1.57925 3.93749 2.0625 3.93749H5.125C5.36662 3.93749 5.5625 3.74162 5.5625 3.49999C5.5625 3.25837 5.36662 3.06249 5.125 3.06249H2.0625Z" fill="#4F46E5"/>
</svg>
