<svg width="13" height="20" viewBox="0 0 13 20" fill="none" xmlns="http://www.w3.org/2000/svg">
<g id="Group 113">
<path id="Vector" d="M6.5 10.0003C6.5 9.11627 6.84241 8.26842 7.4519 7.6433C8.0614 7.01818 8.88805 6.66699 9.75 6.66699C10.612 6.66699 11.4386 7.01818 12.0481 7.6433C12.6576 8.26842 13 9.11627 13 10.0003C13 10.8844 12.6576 11.7322 12.0481 12.3573C11.4386 12.9825 10.612 13.3337 9.75 13.3337C8.88805 13.3337 8.0614 12.9825 7.4519 12.3573C6.84241 11.7322 6.5 10.8844 6.5 10.0003Z" fill="#1ABCFE"/>
<path id="Vector_2" d="M0 16.6663C0 15.7823 0.34241 14.9344 0.951903 14.3093C1.5614 13.6842 2.38805 13.333 3.25 13.333H6.5V16.6663C6.5 17.5504 6.15759 18.3982 5.5481 19.0234C4.9386 19.6485 4.11195 19.9997 3.25 19.9997C2.38805 19.9997 1.5614 19.6485 0.951903 19.0234C0.34241 18.3982 0 17.5504 0 16.6663H0Z" fill="#0ACF83"/>
<path id="Vector_3" d="M6.5 0V6.66667H9.75C10.612 6.66667 11.4386 6.31548 12.0481 5.69036C12.6576 5.06523 13 4.21739 13 3.33333C13 2.44928 12.6576 1.60143 12.0481 0.976311C11.4386 0.351189 10.612 0 9.75 0L6.5 0Z" fill="#FF7262"/>
<path id="Vector_4" d="M0 3.33333C0 4.21739 0.34241 5.06523 0.951903 5.69036C1.5614 6.31548 2.38805 6.66667 3.25 6.66667H6.5V0H3.25C2.38805 0 1.5614 0.351189 0.951903 0.976311C0.34241 1.60143 0 2.44928 0 3.33333H0Z" fill="#F24E1E"/>
<path id="Vector_5" d="M0 10.0003C0 10.8844 0.34241 11.7322 0.951903 12.3573C1.5614 12.9825 2.38805 13.3337 3.25 13.3337H6.5V6.66699H3.25C2.38805 6.66699 1.5614 7.01818 0.951903 7.6433C0.34241 8.26842 0 9.11627 0 10.0003H0Z" fill="#A259FF"/>
</g>
</svg>
