<svg width="20" height="19" viewBox="0 0 20 19" fill="none" xmlns="http://www.w3.org/2000/svg">
<path fill-rule="evenodd" clip-rule="evenodd" d="M9.61175 0.658387C9.72668 0.581852 9.86167 0.541016 9.99975 0.541016C10.1378 0.541016 10.2728 0.581852 10.3878 0.658387L18.7278 6.21839C19.3038 6.60239 19.0318 7.50039 18.3388 7.50039H1.66075C0.967752 7.50039 0.695752 6.60239 1.27175 6.21839L9.61175 0.658387ZM9.99975 1.60039L2.65075 6.50039H17.3498L9.99975 1.60039ZM15.9998 15.0004C15.8671 15.0004 15.74 14.9477 15.6462 14.8539C15.5524 14.7602 15.4998 14.633 15.4998 14.5004V9.00039C15.4998 8.86778 15.5524 8.7406 15.6462 8.64683C15.74 8.55307 15.8671 8.50039 15.9998 8.50039C16.1324 8.50039 16.2595 8.55307 16.3533 8.64683C16.4471 8.7406 16.4998 8.86778 16.4998 9.00039V14.5004C16.4998 14.633 16.4471 14.7602 16.3533 14.8539C16.2595 14.9477 16.1324 15.0004 15.9998 15.0004ZM11.9998 15.0004C11.8671 15.0004 11.74 14.9477 11.6462 14.8539C11.5524 14.7602 11.4998 14.633 11.4998 14.5004V9.00039C11.4998 8.86778 11.5524 8.7406 11.6462 8.64683C11.74 8.55307 11.8671 8.50039 11.9998 8.50039C12.1324 8.50039 12.2595 8.55307 12.3533 8.64683C12.4471 8.7406 12.4998 8.86778 12.4998 9.00039V14.5004C12.4998 14.633 12.4471 14.7602 12.3533 14.8539C12.2595 14.9477 12.1324 15.0004 11.9998 15.0004ZM7.99975 15.0004C7.86714 15.0004 7.73997 14.9477 7.6462 14.8539C7.55243 14.7602 7.49975 14.633 7.49975 14.5004V9.00039C7.49975 8.86778 7.55243 8.7406 7.6462 8.64683C7.73997 8.55307 7.86714 8.50039 7.99975 8.50039C8.13236 8.50039 8.25954 8.55307 8.35331 8.64683C8.44707 8.7406 8.49975 8.86778 8.49975 9.00039V14.5004C8.49975 14.633 8.44707 14.7602 8.35331 14.8539C8.25954 14.9477 8.13236 15.0004 7.99975 15.0004ZM3.99975 15.0004C3.86714 15.0004 3.73997 14.9477 3.6462 14.8539C3.55243 14.7602 3.49975 14.633 3.49975 14.5004V9.00039C3.49975 8.86778 3.55243 8.7406 3.6462 8.64683C3.73997 8.55307 3.86714 8.50039 3.99975 8.50039C4.13236 8.50039 4.25954 8.55307 4.35331 8.64683C4.44707 8.7406 4.49975 8.86778 4.49975 9.00039V14.5004C4.49975 14.633 4.44707 14.7602 4.35331 14.8539C4.25954 14.9477 4.13236 15.0004 3.99975 15.0004ZM1.49975 17.5004C1.49975 17.1026 1.65779 16.721 1.93909 16.4397C2.2204 16.1584 2.60193 16.0004 2.99975 16.0004H16.9998C17.3976 16.0004 17.7791 16.1584 18.0604 16.4397C18.3417 16.721 18.4998 17.1026 18.4998 17.5004C18.4998 17.8982 18.3417 18.2797 18.0604 18.561C17.7791 18.8424 17.3976 19.0004 16.9998 19.0004H2.99975C2.60193 19.0004 2.2204 18.8424 1.93909 18.561C1.65779 18.2797 1.49975 17.8982 1.49975 17.5004ZM2.99975 17.0004C2.86714 17.0004 2.73997 17.0531 2.6462 17.1468C2.55243 17.2406 2.49975 17.3678 2.49975 17.5004C2.49975 17.633 2.55243 17.7602 2.6462 17.8539C2.73997 17.9477 2.86714 18.0004 2.99975 18.0004H16.9998C17.1324 18.0004 17.2595 17.9477 17.3533 17.8539C17.4471 17.7602 17.4998 17.633 17.4998 17.5004C17.4998 17.3678 17.4471 17.2406 17.3533 17.1468C17.2595 17.0531 17.1324 17.0004 16.9998 17.0004H2.99975Z" fill="black"/>
</svg>
