<svg width="24" height="24" viewBox="0 0 24 24" fill="none" xmlns="http://www.w3.org/2000/svg">
<g id="Icon">
<path id="Vector" fill-rule="evenodd" clip-rule="evenodd" d="M5.51513 18.8195L11.9157 21.8611C12.2849 22.0204 12.6946 22.0706 13.2006 21.8611L19.5774 18.8197C20.1006 18.5663 20.4102 18.0363 20.3862 17.4836L21.9568 3.54373C22.1162 2.76169 21.3429 2.03201 20.5054 2H4.46819C3.65889 2.06234 2.87478 2.63474 3.01675 3.58981L4.63475 17.6446C4.73976 18.226 4.92288 18.4956 5.51513 18.8195ZM15.5966 15.0654L18.7102 12.0505C19.0919 11.6798 19.115 11.0131 18.6687 10.5631L15.5761 7.56821C14.4119 6.61729 13.1443 8.13365 14.0606 9.03553L16.4269 11.3269L14.0813 13.5983C13.1138 14.6371 14.5348 15.9734 15.5966 15.0654ZM9.72222 15.0653L6.62937 12.0708C6.00376 11.6217 6.22594 10.9046 6.62937 10.543L9.74298 7.52799C10.8381 6.59918 12.1946 7.98256 11.2583 8.9953L8.89193 11.3269L11.2375 13.5982C12.2101 14.7499 10.6609 15.946 9.72222 15.0653Z" fill="#1162FF"/>
</g>
</svg>
