<svg width="24" height="24" viewBox="0 0 24 24" fill="none" xmlns="http://www.w3.org/2000/svg">
<g id="Icon">
<path id="bg" d="M1.5 9.1C1.5 6.43975 1.5 5.10963 2.01772 4.09354C2.47312 3.19978 3.19978 2.47312 4.09354 2.01772C5.10963 1.5 6.43975 1.5 9.1 1.5H14.9C17.5602 1.5 18.8904 1.5 19.9065 2.01772C20.8002 2.47312 21.5269 3.19978 21.9823 4.09354C22.5 5.10963 22.5 6.43975 22.5 9.1V14.9C22.5 17.5602 22.5 18.8904 21.9823 19.9065C21.5269 20.8002 20.8002 21.5269 19.9065 21.9823C18.8904 22.5 17.5602 22.5 14.9 22.5H9.1C6.43975 22.5 5.10963 22.5 4.09354 21.9823C3.19978 21.5269 2.47312 20.8002 2.01772 19.9065C1.5 18.8904 1.5 17.5602 1.5 14.9V9.1Z" fill="#330000"/>
<g id="Vector">
<path d="M11.6765 14.6972H8.42228L7.76017 16.8067C7.74178 16.8851 7.66962 16.9406 7.59111 16.9368H5.94288C5.84889 16.9368 5.81601 16.8838 5.84427 16.7778L8.66175 8.45535C8.68995 8.36868 8.71813 8.26994 8.7463 8.15915C8.78315 7.96638 8.80202 7.77044 8.80265 7.574C8.79458 7.51596 8.84558 7.4647 8.90126 7.47284H11.1411C11.2068 7.47284 11.2443 7.49693 11.2538 7.5451L14.4517 16.7923C14.4799 16.8887 14.4517 16.9368 14.3672 16.9368H12.5358C12.4716 16.9441 12.4102 16.9 12.3949 16.8356L11.6765 14.6972ZM8.92942 12.8767H11.1552C10.7895 11.627 10.3768 10.3938 10.0424 9.13445C9.68146 10.3959 9.28771 11.6524 8.92942 12.8767Z" fill="#FF9A00"/>
<path d="M16.3534 9.00437C16.2097 9.01028 16.0664 8.98503 15.9329 8.93025C15.7994 8.87548 15.6786 8.79242 15.5786 8.6865C15.4788 8.57598 15.4013 8.44633 15.3505 8.305C15.2997 8.16366 15.2767 8.01342 15.2827 7.86292C15.2776 7.71391 15.3032 7.56547 15.3578 7.42729C15.4124 7.28911 15.4948 7.1643 15.5997 7.06101C15.7035 6.95879 15.8261 6.87871 15.9603 6.82539C16.0945 6.77207 16.2377 6.74657 16.3815 6.75037C16.7196 6.75037 16.985 6.85392 17.1775 7.06101C17.2747 7.16864 17.3502 7.29486 17.3997 7.43247C17.4493 7.57007 17.4719 7.71634 17.4663 7.86292C17.4721 8.01401 17.4484 8.16477 17.3963 8.30625C17.3443 8.44772 17.2651 8.57703 17.1634 8.6865C17.0571 8.79397 16.9302 8.8777 16.7908 8.93241C16.6514 8.98711 16.5025 9.01162 16.3534 9.00437ZM15.3813 16.7922V9.88572C15.3813 9.79905 15.4187 9.75568 15.494 9.75568H17.2268C17.3019 9.75568 17.3394 9.79903 17.3395 9.88572V16.7922C17.3395 16.8886 17.3019 16.9368 17.2268 16.9367H15.5081C15.4236 16.9367 15.3813 16.8885 15.3813 16.7922Z" fill="#FF9A00"/>
</g>
</g>
</svg>
