<svg width="18" height="18" viewBox="0 0 18 18" fill="none" xmlns="http://www.w3.org/2000/svg">
<g id="Icon">
<path id="Icon_2" fill-rule="evenodd" clip-rule="evenodd" d="M1.6875 9C1.6875 4.96142 4.96142 1.6875 9 1.6875C13.0386 1.6875 16.3125 4.96142 16.3125 9C16.3125 13.0386 13.0386 16.3125 9 16.3125C4.96142 16.3125 1.6875 13.0386 1.6875 9ZM8.21718 7.91884C9.07686 7.489 10.0448 8.26547 9.81171 9.19792L9.27995 11.325L9.31106 11.3094C9.58893 11.1705 9.92681 11.2831 10.0657 11.561C10.2047 11.8388 10.092 12.1767 9.81418 12.3156L9.78307 12.3312C8.92339 12.761 7.95543 11.9846 8.18854 11.0521L8.7203 8.92507L8.68918 8.94063C8.41132 9.07956 8.07344 8.96693 7.93451 8.68907C7.79558 8.41121 7.9082 8.07333 8.18607 7.9344L8.21718 7.91884ZM9 6.75C9.31066 6.75 9.5625 6.49816 9.5625 6.1875C9.5625 5.87684 9.31066 5.625 9 5.625C8.68934 5.625 8.4375 5.87684 8.4375 6.1875C8.4375 6.49816 8.68934 6.75 9 6.75Z" fill="#4338CA"/>
</g>
</svg>
