<svg width="22" height="19" viewBox="0 0 22 19" fill="none" xmlns="http://www.w3.org/2000/svg">
<path fill-rule="evenodd" clip-rule="evenodd" d="M4.47812 3.55887C4.67178 2.92948 5.25329 2.5 5.91179 2.5H8C8.41421 2.5 8.75 2.16421 8.75 1.75C8.75 1.33579 8.41421 1 8 1H5.91179C4.59478 1 3.43177 1.85897 3.04446 3.11774L0.632663 10.9561C0.544715 11.2419 0.5 11.5393 0.5 11.8383V16C0.5 17.6569 1.84315 19 3.5 19H18.5C20.1569 19 21.5 17.6569 21.5 16V11.8383C21.5 11.5393 21.4553 11.2419 21.3673 10.9561L18.9555 3.11774C18.5682 1.85897 17.4052 1 16.0882 1H14C13.5858 1 13.25 1.33579 13.25 1.75C13.25 2.16421 13.5858 2.5 14 2.5H16.0882C16.7467 2.5 17.3282 2.92948 17.5219 3.55887L19.7345 10.75H16.8906C15.7543 10.75 14.7155 11.392 14.2073 12.4084L13.9511 12.9208C13.697 13.429 13.1776 13.75 12.6094 13.75H9.39058C8.82242 13.75 8.30302 13.429 8.04894 12.9208L7.79271 12.4084C7.28453 11.392 6.24574 10.75 5.10942 10.75H2.26547L4.47812 3.55887Z" fill="#4B5563"/>
<path fill-rule="evenodd" clip-rule="evenodd" d="M11 0.25C11.4142 0.25 11.75 0.585786 11.75 1V7.43934L13.4697 5.71967C13.7626 5.42678 14.2374 5.42678 14.5303 5.71967C14.8232 6.01256 14.8232 6.48744 14.5303 6.78033L11.5303 9.78033C11.2374 10.0732 10.7626 10.0732 10.4697 9.78033L7.46967 6.78033C7.17678 6.48744 7.17678 6.01256 7.46967 5.71967C7.76256 5.42678 8.23744 5.42678 8.53033 5.71967L10.25 7.43934V1C10.25 0.585786 10.5858 0.25 11 0.25Z" fill="#4B5563"/>
</svg>
