<svg width="24" height="24" viewBox="0 0 24 24" fill="none" xmlns="http://www.w3.org/2000/svg">
<g id="Icon">
<path id="Vector" d="M13.2475 3.25294C18.0756 3.24747 21.9943 7.15723 21.9998 11.985V11.9947C22.0025 16.8256 18.0885 20.7443 13.2572 20.7471H13.2521C8.42129 20.7471 4.50488 16.8303 4.50488 11.9998V11.9947C4.50762 7.16778 8.42012 3.25567 13.2475 3.25294Z" fill="#D35230"/>
<path id="Vector_2" d="M13.2478 3.25293C8.42002 3.26113 4.50869 7.17285 4.50049 12.0002H13.2478V3.25293Z" fill="#ED6C47"/>
<path id="Vector_3" d="M13.2476 3.25293C18.0757 3.26113 21.989 7.17168 21.9999 12.0002H13.2476V3.25293Z" fill="#FF8F6B"/>
<path id="Vector_4" d="M3.83166 8.00078H12.1633C12.6254 8.00078 13 8.37539 13 8.8375V17.1691C13 17.6281 12.6274 18.0004 12.1688 18.0004H12.1637H3.83166C3.37541 18.0027 3.00314 17.6348 3.00002 17.1785V17.1688V8.83672C2.99728 8.37773 3.36759 8.00313 3.82619 8H3.83166V8.00078Z" fill="#832B14"/>
<path id="Vector_5" d="M2.83166 7.00078H11.1633C11.6254 7.00078 12 7.37539 12 7.8375V16.1691C12 16.6281 11.6274 17.0004 11.1688 17.0004H11.1637H2.83166C2.37541 17.0027 2.00314 16.6348 2.00002 16.1785V16.1688V7.83672C1.99728 7.37773 2.36759 7.00313 2.82619 7H2.83166V7.00078Z" fill="#C43E1C"/>
<path id="Vector_6" d="M7.02012 8.87688C7.6416 8.83195 8.25957 9.01203 8.75918 9.3843C9.17012 9.75305 9.39004 10.289 9.35762 10.8398C9.36582 11.2003 9.26191 11.5554 9.0584 11.8538C8.85449 12.1745 8.56465 12.4308 8.22168 12.5941C7.82676 12.7773 7.39473 12.8675 6.95918 12.8577H5.76191V15.1198H4.54004V8.87688H7.02012ZM5.74707 11.8023H6.80176C7.13613 11.8238 7.46699 11.7245 7.73496 11.5234C7.94824 11.3835 8.06855 11.1386 8.04941 10.8843C8.04941 10.1902 7.64902 9.87024 6.84277 9.87024H5.74785V11.8023H5.74707Z" fill="#F9F7F7"/>
</g>
</svg>
