<svg width="18" height="18" viewBox="0 0 18 18" fill="none" xmlns="http://www.w3.org/2000/svg">
<path fill-rule="evenodd" clip-rule="evenodd" d="M0 3C0 1.34315 1.34315 0 3 0H15C16.6569 0 18 1.34315 18 3V15C18 16.6569 16.6569 18 15 18H3C1.34315 18 0 16.6569 0 15V3ZM4.5 10.5C4.91421 10.5 5.25 10.8358 5.25 11.25V13.5C5.25 13.9142 4.91421 14.25 4.5 14.25C4.08579 14.25 3.75 13.9142 3.75 13.5V11.25C3.75 10.8358 4.08579 10.5 4.5 10.5ZM8.25 9C8.25 8.58579 7.91421 8.25 7.5 8.25C7.08579 8.25 6.75 8.58579 6.75 9V13.5C6.75 13.9142 7.08579 14.25 7.5 14.25C7.91421 14.25 8.25 13.9142 8.25 13.5V9ZM10.5 6C10.9142 6 11.25 6.33579 11.25 6.75V13.5C11.25 13.9142 10.9142 14.25 10.5 14.25C10.0858 14.25 9.75 13.9142 9.75 13.5V6.75C9.75 6.33579 10.0858 6 10.5 6ZM14.25 4.5C14.25 4.08579 13.9142 3.75 13.5 3.75C13.0858 3.75 12.75 4.08579 12.75 4.5V13.5C12.75 13.9142 13.0858 14.25 13.5 14.25C13.9142 14.25 14.25 13.9142 14.25 13.5V4.5Z" fill="#4B5563"/>
</svg>
