<svg width="60" height="60" viewBox="0 0 60 60" fill="none" xmlns="http://www.w3.org/2000/svg">
<g id="Icon">
<g id="Icon_2">
<path d="M28.6742 4.29917C29.4064 3.56694 30.5936 3.56694 31.3258 4.29917L38.8258 11.7992C39.5581 12.5314 39.5581 13.7186 38.8258 14.4508C38.0936 15.1831 36.9064 15.1831 36.1742 14.4508L31.875 10.1517L31.875 18.75H28.125V10.1517L23.8258 14.4508C23.0936 15.1831 21.9064 15.1831 21.1742 14.4508C20.4419 13.7186 20.4419 12.5314 21.1742 11.7992L28.6742 4.29917Z" fill="#4B5563"/>
<path d="M28.125 18.75L28.125 37.5C28.125 38.5355 28.9645 39.375 30 39.375C31.0355 39.375 31.875 38.5355 31.875 37.5V18.75H41.25C45.3921 18.75 48.75 22.1079 48.75 26.25V48.75C48.75 52.8921 45.3921 56.25 41.25 56.25H18.75C14.6079 56.25 11.25 52.8921 11.25 48.75V26.25C11.25 22.1079 14.6079 18.75 18.75 18.75H28.125Z" fill="#4B5563"/>
</g>
</g>
</svg>
