<svg width="20" height="20" viewBox="0 0 20 20" fill="none" xmlns="http://www.w3.org/2000/svg">
<g id="Icon">
<path id="Icon_2" fill-rule="evenodd" clip-rule="evenodd" d="M16.25 17.5C17.6307 17.5 18.75 16.3807 18.75 15V7.5C18.75 6.11929 17.6307 5 16.25 5H11.7678C11.602 5 11.443 4.93415 11.3258 4.81694L9.55806 3.04917C9.20643 2.69754 8.72951 2.5 8.23223 2.5H3.75C2.36929 2.5 1.25 3.61929 1.25 5V15C1.25 16.3807 2.36929 17.5 3.75 17.5H16.25ZM10.625 8.75C10.625 8.40482 10.3452 8.125 10 8.125C9.65482 8.125 9.375 8.40482 9.375 8.75L9.375 12.2411L7.94194 10.8081C7.69786 10.564 7.30214 10.564 7.05806 10.8081C6.81398 11.0521 6.81398 11.4479 7.05806 11.6919L9.55806 14.1919C9.67527 14.3092 9.83424 14.375 10 14.375C10.1658 14.375 10.3247 14.3092 10.4419 14.1919L12.9419 11.6919C13.186 11.4479 13.186 11.0521 12.9419 10.8081C12.6979 10.564 12.3021 10.564 12.0581 10.8081L10.625 12.2411L10.625 8.75Z" fill="#4B5563"/>
</g>
</svg>
