<svg width="22" height="18" viewBox="0 0 22 18" fill="none" xmlns="http://www.w3.org/2000/svg">
<path fill-rule="evenodd" clip-rule="evenodd" d="M0.5 6.83233V8.625C0.5 9.66053 1.33947 10.5 2.375 10.5H19.625C20.6605 10.5 21.5 9.66053 21.5 8.625V6.83233C21.5 6.11619 21.2438 5.42368 20.7778 4.87995L17.4929 1.04763C16.923 0.382688 16.0909 0 15.2151 0H6.78485C5.90908 0 5.07703 0.382688 4.50708 1.04763L1.22223 4.87995C0.756177 5.42368 0.5 6.1162 0.5 6.83233ZM6.78485 1.5C6.34697 1.5 5.93094 1.69134 5.64597 2.02381L2.88067 5.25H6.04584C7.0489 5.25 7.98559 5.7513 8.54199 6.5859L8.70609 6.83205C8.98429 7.24935 9.45263 7.5 9.95416 7.5H12.0458C12.5474 7.5 13.0157 7.24935 13.2939 6.83205L13.458 6.5859C14.0144 5.7513 14.9511 5.25 15.9542 5.25H19.1193L16.354 2.02381C16.0691 1.69134 15.653 1.5 15.2151 1.5H6.78485Z" fill="#4B5563"/>
<path d="M1.8125 12C1.08763 12 0.5 12.5876 0.5 13.3125V15C0.5 16.6569 1.84315 18 3.5 18H18.5C20.1569 18 21.5 16.6569 21.5 15V13.3125C21.5 12.5876 20.9124 12 20.1875 12H15.9542C14.9511 12 14.0144 12.5013 13.458 13.3359L13.2939 13.5821C13.0157 13.9993 12.5474 14.25 12.0458 14.25H9.95416C9.45263 14.25 8.98429 13.9993 8.70609 13.5821L8.54199 13.3359C7.98559 12.5013 7.0489 12 6.04584 12H1.8125Z" fill="#4B5563"/>
</svg>
